HIERARCHY
ROOT Hips
{
	OFFSET 0.00000 0.00000 0.00000
	CHANNELS 6 Xposition Yposition Zposition Yrotation Zrotation Xrotation 
	JOINT Lumbar
	{
		OFFSET 0 0 0
		CHANNELS 3 Zrotation Xrotation Yrotation
		JOINT Neck
		{
			OFFSET 0.00 0.2701 0.00
			CHANNELS 3 Zrotation Xrotation Yrotation
			End Site
			{
				OFFSET 0.00 0.1379 0.00
			}
		}
		JOINT RightShoulder
		{
			OFFSET 0.0119 0.2289 0.1181
			CHANNELS 3 Zrotation Xrotation Yrotation
			JOINT RightElbow
			{
				OFFSET 0.00 -0.1475 0.00
				CHANNELS 2 Zrotation Yrotation
				JOINT RightWrist
				{
					OFFSET 0.00 -0.1605 0.00
					CHANNELS 2 Zrotation Xrotation
					End Site
					{
						OFFSET 0.0040 -0.1068 0.0006
					}
				}
			}
		}
		JOINT LeftShoulder
		{
			OFFSET 0.0119 0.2289 -0.1181
			CHANNELS 3 Zrotation Xrotation Yrotation
			JOINT LeftElbow
			{
				OFFSET 0.00 -0.1475 0.00
				CHANNELS 2 Zrotation Yrotation
				JOINT LeftWrist
				{
					OFFSET 0.00 -0.1605 0.00
					CHANNELS 2 Zrotation Xrotation
					End Site
					{
						OFFSET 0.0040 -0.1068 -0.0006
					}
				}
			}
		}
	}
	JOINT RightHip
	{
		OFFSET 0.0316 -0.0424 0.0458
		CHANNELS 3 Zrotation Xrotation Yrotation
		JOINT RightKnee
		{
			OFFSET 0.00 -0.2438 0.00
			CHANNELS 1 Zrotation
			JOINT RightAnkle
			{
				OFFSET 0.00 -0.2449 0.00
				CHANNELS 3 Zrotation Xrotation Yrotation
				End Site
				{
					OFFSET 0.1237 -0.0542 0.0051
				}
			}
		}
	}
	JOINT LeftHip
	{
		OFFSET 0.0316 -0.0424 -0.0458
		CHANNELS 3 Zrotation Xrotation Yrotation
		JOINT LeftKnee
		{
			OFFSET 0.00 -0.2438 0.00
			CHANNELS 1 Zrotation
			JOINT LeftAnkle
			{
				OFFSET 0.00 -0.2449 0.00
				CHANNELS 3 Zrotation Xrotation Yrotation
				End Site
				{
					OFFSET 0.1237 -0.0542 -0.0051
				}
			}
		}
	}
}
MOTION
Frames: 16
Frame Time: 0.02
0.00032 0.00014 -6e-05 30.89062 -19.54843 -4.17659 43.72272 -0.90652 -6.37124 -10.56032 3.72765 -1.04764 -19.28015 -3.0173 -14.58853 26.02038 145.57765 21.8645 10.01825 -23.36531 6.36322 2.7457 31.19242 -104.75918 15.52117 -1.88535 29.06394 -2.78531 -9.50564 -20.29586 -6.50221 -3.54033 -3.97052 34.93688 5.91901 3.723 -24.43435 -6.64907 2.52236 3.49202
0.00034 0.00015 -8e-05 30.87352 -19.53697 -4.17406 43.74713 -0.90973 -6.3878 -10.52176 3.71029 -1.04862 -19.32108 -3.2677 -13.54211 26.0589 140.50003 20.4669 9.17938 -23.36935 6.45195 2.58843 31.2804 -104.67139 15.48452 -1.89699 29.04638 -2.8009 -9.57227 -20.29437 -6.50117 -3.54016 -3.96797 34.91379 5.94868 3.86302 -24.43455 -6.64895 2.51877 3.48675
0.00037 0.00016 -0.0001 30.85646 -19.52555 -4.17154 43.77149 -0.91292 -6.40436 -10.48331 3.69297 -1.0496 -19.36203 -3.51738 -12.49874 26.09766 135.43843 19.07375 8.34314 -23.3737 6.54062 2.43135 31.36856 -104.584 15.44809 -1.90858 29.02889 -2.81649 -9.6389 -20.29288 -6.50012 -3.53998 -3.96541 34.89079 5.97828 4.00268 -24.43475 -6.64883 2.51518 3.48151
0.00039 0.00017 -0.00012 30.83941 -19.51414 -4.16902 43.79584 -0.91612 -6.42088 -10.44487 3.67567 -1.05057 -19.40286 -3.76703 -11.45545 26.13613 130.37619 17.6804 7.50681 -23.37779 6.62911 2.27451 31.45635 -104.49649 15.41156 -1.92018 29.01139 -2.83204 -9.70536 -20.29139 -6.49909 -3.53981 -3.96287 34.86778 6.00785 4.14227 -24.43495 -6.64871 2.5116 3.47626
0.00041 0.00019 -0.00014 30.82235 -19.50268 -4.16649 43.82023 -0.91933 -6.43739 -10.40634 3.65834 -1.05156 -19.44362 -4.01735 -10.40932 26.17421 125.29866 16.28277 6.66796 -23.38142 6.71757 2.1176 31.54376 -104.40854 15.37479 -1.93185 28.99381 -2.84759 -9.77174 -20.2899 -6.49806 -3.53966 -3.96033 34.84466 6.0375 4.2822 -24.43515 -6.64858 2.50801 3.47099
0.00043 0.0002 -0.00016 30.80528 -19.49134 -4.16399 43.84452 -0.92248 -6.45405 -10.36807 3.64104 -1.05253 -19.48494 -4.26565 -9.3719 26.2144 120.27132 14.89922 5.83735 -23.38729 6.80669 1.96017 31.63346 -104.32233 15.3391 -1.94327 28.97651 -2.86325 -9.83887 -20.28844 -6.49697 -3.53941 -3.95774 34.82189 6.06698 4.4213 -24.43538 -6.64847 2.50444 3.46578
0.00045 0.00021 -0.00018 30.78824 -19.4798 -4.16143 43.869 -0.92576 -6.47039 -10.32929 3.62369 -1.05351 -19.52511 -4.51782 -8.31776 26.25033 115.14654 13.48836 4.99074 -23.38869 6.8944 1.80395 31.71857 -104.23268 15.30124 -1.95516 28.95868 -2.87867 -9.90444 -20.2869 -6.49602 -3.53937 -3.95525 34.79848 6.09676 4.56184 -24.43553 -6.64833 2.50084 3.46048
0.00047 0.00022 -0.0002 30.77117 -19.4684 -4.15892 43.89328 -0.92892 -6.487 -10.29103 3.60639 -1.05449 -19.56632 -4.76626 -7.27964 26.29013 110.11521 12.10362 4.15949 -23.39414 6.98338 1.64664 31.80772 -104.14627 15.26541 -1.96664 28.9413 -2.89431 -9.97142 -20.28544 -6.49494 -3.53913 -3.95267 34.77561 6.12629 4.70123 -24.43577 -6.64822 2.49725 3.45524
0.00049 0.00023 -0.00022 30.75409 -19.45732 -4.15648 43.91742 -0.93191 -6.50409 -10.25319 3.58912 -1.05546 -19.60891 -5.01089 -6.25825 26.33499 105.18179 10.74656 3.34426 -23.40489 7.07408 1.48779 31.90267 -104.06354 15.23196 -1.97752 28.92462 -2.91024 -10.04029 -20.28405 -6.49371 -3.53867 -3.94998 34.7536 6.15541 4.83857 -24.43607 -6.64814 2.49373 3.45013
0.00052 0.00025 -0.00024 30.73712 -19.44485 -4.15367 43.94269 -0.93581 -6.51887 -10.21228 3.57161 -1.05647 -19.64389 -5.2797 -5.13199 26.35173 99.63585 9.21742 2.42855 -23.3862 7.1554 1.33717 31.96682 -103.9588 15.18451 -1.99157 28.90438 -2.92456 -10.09879 -20.28218 -6.49335 -3.53954 -3.94794 34.72723 6.18656 4.98575 -24.43586 -6.64788 2.48998 3.44445
0.00053 0.00026 -0.00026 30.7199 -19.43502 -4.15162 43.96535 -0.93781 -6.53821 -10.17826 3.55465 -1.05742 -19.69469 -5.49605 -4.23259 26.42711 95.41398 8.05959 1.73023 -23.4289 7.25616 1.1696 32.09427 -103.90103 15.16677 -1.99911 28.89135 -2.94225 -10.17882 -20.28137 -6.49114 -3.53757 -3.94452 34.7097 6.21366 5.11342 -24.43681 -6.64796 2.48662 3.43989
0.00048 0.00027 -0.00024 30.70235 -19.43481 -4.15197 43.98243 -0.93439 -6.5728 -10.15976 3.5388 -1.05816 -19.79004 -5.58017 -3.91109 26.66931 94.58132 7.85843 1.58662 -23.64587 7.41401 0.95019 32.40879 -103.97436 15.23227 -1.98799 28.90036 -2.96969 -10.32214 -20.28302 -6.48395 -3.52792 -3.93718 34.71934 6.22735 5.17611 -24.44045 -6.64922 2.48519 3.43901
0.0004 0.00028 -0.00021 30.68455 -19.43666 -4.15302 43.99641 -0.92909 -6.61151 -10.14873 3.52352 -1.05891 -19.90019 -5.61034 -3.82252 26.96832 95.11068 8.03859 1.66681 -23.92206 7.59092 0.71386 32.7827 -104.0982 15.32886 -1.971 28.91605 -3.00052 -10.48663 -20.28584 -6.47487 -3.51538 -3.92847 34.73719 6.23724 5.22077 -24.44533 -6.65076 2.48406 3.43917
0.00033 0.00029 -0.00018 30.66657 -19.43619 -4.15358 44.01102 -0.92475 -6.64645 -10.13658 3.5083 -1.05966 -20.00392 -5.65635 -3.66051 27.23874 95.19254 8.08878 1.67481 -24.16907 7.75635 0.48984 33.12285 -104.19266 15.40807 -1.95656 28.92737 -3.02939 -10.63828 -20.28838 -6.46664 -3.50411 -3.9205 34.74952 6.25058 5.28191 -24.44997 -6.652 2.48218 3.43842
0.00027 0.00031 -0.00016 30.6496 -19.44212 -4.15496 44.02972 -0.91991 -6.68912 -10.11514 3.49194 -1.06022 -20.10997 -5.73509 -3.37506 27.52504 94.60586 7.96939 1.56795 -24.43128 7.9327 0.24983 33.49867 -104.29882 15.49457 -1.94048 28.94487 -3.0597 -10.80224 -20.28975 -6.45854 -3.49308 -3.9121 34.76993 6.25731 5.31042 -24.45327 -6.65397 2.48266 3.43942
0.00019 0.0003 -0.00013 30.63074 -19.43452 -4.15468 44.03818 -0.91574 -6.71702 -10.11441 3.47785 -1.06138 -20.21018 -5.73762 -3.38571 27.78666 95.66849 8.27785 1.74169 -24.66894 8.0921 0.03465 33.80556 -104.41205 15.58141 -1.9291 28.9504 -3.08823 -10.94725 -20.29395 -6.44962 -3.4808 -3.9042 34.77482 6.27608 5.39963 -24.45964 -6.65449 2.47855 3.43718
